<?xml version="1.0" standalone="no"?>
<!DOCTYPE svg PUBLIC "-//W3C//DTD SVG 20010904//EN"
 "http://www.w3.org/TR/2001/REC-SVG-20010904/DTD/svg10.dtd">
<svg version="1.0" xmlns="http://www.w3.org/2000/svg"
 width="500.000000pt" height="500.000000pt" viewBox="0 0 500.000000 500.000000"
 preserveAspectRatio="xMidYMid meet">

<g transform="translate(0.000000,500.000000) scale(0.100000,-0.100000)"
fill="#000000" stroke="none">
<path d="M1528 4039 c-25 -14 -23 -35 18 -140 37 -96 49 -118 60 -106 10 10
-38 257 -50 257 -6 0 -19 -5 -28 -11z"/>
<path d="M1302 3990 c-6 -11 -12 -24 -12 -30 0 -14 140 -190 151 -190 5 0 9 5
9 11 0 20 -114 229 -125 229 -6 0 -16 -9 -23 -20z"/>
<path d="M1144 3796 c-3 -8 -4 -25 -2 -37 2 -20 20 -29 108 -61 58 -20 111
-37 118 -37 28 -2 3 25 -54 57 -32 18 -83 47 -112 63 -42 24 -54 27 -58 15z"/>
<path d="M2675 3796 c-93 -30 -149 -69 -276 -194 -139 -135 -193 -206 -231
-302 -12 -33 -25 -60 -28 -60 -3 0 -29 35 -58 79 -53 81 -69 98 -162 180 -71
62 -245 176 -290 189 -58 17 -114 23 -130 12 -24 -15 -18 -170 10 -240 12 -30
33 -86 46 -125 14 -38 35 -86 49 -107 22 -33 68 -140 62 -143 -1 -1 -35 -25
-74 -54 -88 -64 -175 -157 -248 -265 -74 -110 -262 -517 -266 -575 -3 -43 -2
-45 31 -57 43 -15 102 -17 155 -3 22 5 83 14 135 19 104 11 256 51 307 80 l33
19 5 -27 c12 -58 53 -120 127 -193 123 -121 241 -172 343 -148 44 11 47 13 25
19 -14 4 4 6 40 4 37 -2 117 -19 185 -40 101 -30 139 -37 240 -41 113 -4 125
-3 200 24 96 34 103 45 106 160 1 66 4 80 16 76 12 -5 12 -7 2 -14 -19 -12 91
-58 166 -71 73 -12 223 -3 316 18 43 10 91 30 131 56 35 23 104 60 153 84 115
55 129 66 129 107 -1 76 -80 176 -211 262 l-89 58 85 89 c47 48 90 88 97 88 6
0 19 9 29 20 24 27 17 42 -82 166 -141 177 -198 212 -456 278 -119 31 -154 36
-252 36 -113 0 -211 -16 -289 -46 -36 -14 -38 -14 -31 3 54 130 84 458 52 553
-14 41 -38 47 -102 26z m86 -33 c16 -49 6 -302 -16 -407 -20 -94 -46 -168 -60
-168 -5 0 -18 -7 -27 -15 -26 -23 -22 -4 5 26 12 14 0 6 -28 -18 -72 -62 -101
-72 -34 -12 31 27 64 63 74 78 12 18 -5 6 -44 -30 -34 -31 -88 -74 -119 -96
-75 -50 -185 -106 -180 -90 2 7 13 17 23 23 64 36 135 88 130 97 -4 5 0 9 7
10 10 0 10 2 -1 6 -11 4 -8 10 10 25 23 19 22 19 -11 0 -45 -27 -93 -45 -86
-33 4 5 1 11 -6 13 -7 3 19 21 57 41 39 20 84 49 100 63 31 26 19 24 -25 -6
-57 -38 -120 -70 -120 -62 0 5 41 33 92 63 50 30 110 72 133 94 23 22 32 33
21 23 -22 -17 -215 -138 -221 -138 -2 0 19 40 46 88 39 72 58 95 98 120 59 39
151 120 151 134 0 5 -22 -10 -49 -34 -26 -23 -70 -59 -97 -78 l-48 -34 20 34
c12 19 30 50 40 68 10 18 47 51 81 74 60 39 84 60 44 38 -25 -13 -34 -13 -26
0 3 6 -1 7 -10 3 -11 -4 -13 -8 -6 -12 7 -5 -1 -16 -19 -29 -19 -14 -27 -17
-24 -8 3 8 12 17 20 20 9 3 13 10 10 15 -4 5 11 23 32 40 41 32 50 58 20 56
-19 -1 -70 -71 -155 -215 -46 -79 -49 -66 -8 45 40 109 39 102 22 83 -8 -10
-18 -14 -22 -10 -5 4 -5 1 -1 -6 10 -17 -3 -54 -16 -46 -6 4 -8 2 -5 -4 8 -12
-30 -182 -44 -196 -12 -13 -12 -13 11 74 10 41 17 76 15 79 -3 2 -5 -2 -5 -10
0 -12 -2 -12 -9 0 -10 15 -30 -40 -51 -140 -9 -43 -9 -43 -5 13 3 32 21 101
40 154 38 106 41 136 5 52 -47 -108 -61 -165 -67 -258 -5 -82 -11 -104 -45
-175 l-39 -80 4 190 c4 223 -8 185 -18 -57 -8 -179 -11 -186 -56 -149 -23 19
-24 24 -23 153 1 75 -2 120 -6 103 -4 -16 -8 -72 -9 -122 0 -51 -4 -93 -7 -93
-3 0 -14 5 -24 10 -14 7 -31 6 -62 -6 -24 -8 -55 -17 -69 -18 -27 -3 -97 -40
-134 -71 -18 -15 -17 -15 9 0 16 10 45 27 64 38 19 11 46 21 61 22 14 1 40 5
56 9 28 6 27 5 -8 -14 -52 -28 -41 -36 14 -10 24 11 53 20 64 20 11 0 -4 -11
-33 -25 -29 -13 -68 -36 -86 -50 -19 -14 -43 -28 -55 -30 -27 -5 -69 -35 -101
-72 l-25 -28 32 29 c17 15 36 26 41 22 5 -3 38 15 73 40 80 57 152 94 181 94
19 0 20 -2 8 -10 -12 -8 -11 -10 7 -10 59 0 52 -13 -40 -74 -51 -33 -130 -92
-176 -131 -93 -77 -173 -139 -488 -375 -116 -88 -214 -164 -218 -170 -4 -7 24
11 61 39 38 28 178 132 311 231 133 99 245 180 248 180 14 0 -10 -23 -83 -79
-42 -33 -93 -75 -113 -93 -19 -18 -28 -27 -19 -20 24 18 35 15 19 -5 -17 -21
-16 -21 84 56 70 55 86 73 40 45 l-28 -16 28 26 c16 14 33 23 39 20 6 -4 8 -3
5 3 -4 6 5 20 18 33 13 13 22 26 20 30 -5 8 158 150 171 150 4 0 -5 -14 -22
-32 -16 -17 -22 -27 -14 -23 13 8 13 7 1 -8 -7 -9 -19 -17 -25 -17 -6 0 -4 5
4 10 8 5 10 10 4 10 -13 0 -61 -50 -48 -50 5 0 -11 -19 -36 -42 -50 -45 -29
-33 41 24 50 40 70 49 48 21 -8 -10 7 -1 33 20 69 56 71 44 3 -20 -51 -47 -53
-51 -15 -23 25 19 72 57 105 85 97 82 104 83 30 7 -38 -40 -66 -72 -61 -72 5
0 1 -10 -10 -22 -12 -15 -13 -18 -3 -10 9 7 23 10 32 6 8 -3 18 0 23 7 5 9 2
11 -12 6 -10 -4 11 21 49 56 37 34 67 66 67 72 0 5 -25 -15 -55 -45 -30 -29
-57 -51 -60 -48 -3 2 22 28 55 57 33 29 60 49 60 45 0 -3 7 -1 15 6 12 10 15
10 15 -2 0 -8 -29 -41 -66 -72 -77 -69 -79 -88 -2 -25 48 39 50 40 20 8 -18
-20 -30 -38 -27 -41 3 -3 -3 -11 -12 -19 -16 -13 -17 -12 -4 4 19 24 -2 21
-24 -3 -10 -11 -26 -20 -34 -18 -9 1 -26 -4 -39 -11 -13 -7 -33 -14 -44 -16
-11 -3 -45 -23 -75 -46 -78 -58 -77 -42 2 21 67 53 92 82 30 35 -20 -16 -39
-24 -47 -19 -7 4 -10 3 -5 -1 8 -9 -20 -45 -36 -45 -6 0 -2 10 9 21 10 12 -19
-9 -66 -46 -47 -38 -136 -106 -197 -152 -62 -46 -113 -85 -113 -88 0 -3 22 11
49 30 53 38 71 45 50 18 -13 -16 -12 -17 4 -4 9 8 15 16 12 19 -7 7 15 32 27
32 6 0 4 -8 -3 -17 -13 -16 -12 -17 4 -4 9 8 20 12 23 9 2 -3 -18 -23 -46 -44
-27 -21 -50 -40 -50 -41 0 -7 57 28 105 64 28 21 43 29 35 19 -8 -10 -15 -24
-15 -31 0 -13 -69 -75 -139 -126 -48 -34 -60 -47 -26 -29 37 20 20 0 -23 -28
-24 -15 -44 -31 -44 -36 -1 -5 -7 -12 -13 -16 -8 -5 -7 -9 5 -13 9 -4 14 -3
11 2 -8 12 22 23 37 14 7 -3 9 -3 5 2 -4 4 0 14 10 21 23 18 37 17 22 -1 -10
-12 -10 -15 2 -15 21 0 29 11 18 25 -7 8 -2 15 16 24 15 6 24 14 21 18 -4 3
-18 -2 -33 -11 -14 -10 -27 -16 -29 -14 -2 2 27 23 63 47 37 24 58 34 48 22
-11 -11 -16 -21 -11 -21 4 0 2 -7 -5 -15 -10 -12 -10 -15 1 -15 16 -1 -18 -30
-35 -30 -5 0 -1 7 10 15 10 8 14 15 7 15 -13 0 -26 -17 -29 -37 -2 -10 3 -10
18 -2 21 12 38 4 22 -10 -27 -26 -273 -104 -260 -82 3 4 -11 8 -31 8 -27 1
-32 -2 -22 -9 11 -8 10 -9 -4 -4 -10 3 -53 -3 -95 -13 -102 -26 -150 -32 -157
-20 -4 5 -2 9 2 9 5 0 18 7 29 16 19 15 19 16 -1 9 -19 -6 -37 -11 -80 -22
-18 -4 -20 0 -20 35 0 47 92 262 112 262 7 0 13 5 13 11 0 5 -4 8 -9 4 -6 -3
15 48 46 112 89 190 206 339 342 437 88 63 151 92 271 125 162 46 198 47 285
16 19 -6 19 -6 -2 12 l-21 18 46 96 c26 53 60 114 77 135 l30 39 7 -30 c6 -26
7 -25 3 7 -3 35 1 42 108 151 62 63 131 127 155 142 34 23 154 71 184 74 3 1
12 -16 19 -36z m-36 -43 c-3 -5 -16 -15 -28 -21 -21 -10 -21 -9 2 10 25 23 36
27 26 11z m-1071 -65 c76 -37 186 -110 231 -152 22 -20 57 -49 78 -65 21 -16
54 -54 74 -86 20 -31 49 -74 66 -95 25 -32 28 -42 19 -60 -11 -22 -11 -22 -12
3 -1 23 -2 23 -10 5 -8 -18 -9 -18 -10 5 l-2 25 -8 -25 -8 -25 -2 25 c-1 23
-2 23 -10 5 -7 -16 -9 -12 -11 20 l-2 40 -7 -45 c-4 -28 -8 -35 -9 -20 l-2 25
-9 -22 c-18 -44 -29 -24 -24 40 3 40 0 78 -9 107 -14 44 -14 42 -9 -61 3 -73
1 -108 -7 -113 -7 -5 -11 4 -12 26 l-1 33 -13 -40 c-12 -39 -12 -38 -9 35 l3
75 -10 -70 c-5 -38 -14 -74 -21 -80 -8 -7 -9 -5 -4 9 3 10 8 60 11 110 l4 91
-9 -80 c-15 -123 -17 -120 -15 15 2 110 2 115 -4 40 -7 -84 -7 -84 -10 -25
l-4 60 -12 -80 -12 -80 -1 110 c0 61 -4 124 -9 140 -7 21 -8 -9 -5 -96 3 -81
1 -129 -6 -133 -16 -9 -190 59 -179 71 3 2 19 -3 36 -12 17 -8 31 -13 31 -10
0 12 -117 63 -129 56 -18 -11 83 -73 174 -107 74 -28 126 -67 110 -83 -6 -4
-32 -14 -58 -20 -42 -10 -53 -9 -93 9 -30 13 -43 24 -38 31 5 9 2 10 -9 6 -25
-9 -73 56 -98 133 -12 36 -32 89 -45 119 -13 29 -21 57 -18 62 3 5 0 9 -5 9
-13 0 -15 162 -3 174 12 13 93 -3 146 -29z m840 -159 c-3 -15 -8 -25 -11 -23
-2 3 -1 17 3 31 3 15 8 25 11 23 2 -3 1 -17 -3 -31z m-20 -88 c-4 -29 -11 -60
-16 -68 -7 -12 -8 -11 -4 5 2 11 7 41 11 68 3 26 8 47 11 47 3 0 2 -24 -2 -52z
m-825 -84 c14 -12 -19 -1 -35 12 -18 14 -18 14 6 3 14 -6 27 -13 29 -15z m788
-21 c-3 -10 -5 -4 -5 12 0 17 2 24 5 18 2 -7 2 -21 0 -30z m-560 -90 c-3 -10
-5 -2 -5 17 0 19 2 27 5 18 2 -10 2 -26 0 -35z m1325 22 c182 -39 364 -109
421 -163 41 -39 187 -222 200 -250 10 -22 8 -27 -13 -40 -14 -9 -65 -55 -114
-103 -54 -53 -94 -85 -103 -82 -10 4 -11 9 -2 19 8 9 8 14 1 14 -6 0 -14 -5
-17 -10 -4 -6 -11 -7 -17 -4 -6 4 -5 10 3 16 9 5 3 6 -16 2 l-30 -6 30 26 30
27 -42 -21 c-50 -24 -60 -25 -44 -6 10 12 8 13 -9 9 -23 -6 -140 16 -140 26 0
4 -49 8 -109 8 -60 0 -114 4 -119 7 -6 4 -13 2 -16 -3 -4 -5 -32 -15 -64 -21
-31 -6 -82 -20 -112 -30 -106 -35 -162 -39 -74 -5 l39 15 -35 -6 c-19 -4 -62
-17 -94 -30 -33 -13 -61 -22 -63 -20 -2 2 28 16 67 32 38 15 68 29 66 31 -2 2
-39 -9 -82 -26 -43 -17 -80 -29 -82 -26 -5 5 55 30 136 57 34 12 61 23 59 25
-6 5 -138 -37 -179 -58 -21 -11 -38 -15 -38 -10 0 8 61 35 128 56 13 4 21 9
18 12 -6 6 -136 -36 -153 -50 -8 -6 -13 -6 -13 0 0 6 10 15 23 21 19 9 18 10
-12 5 -52 -9 -31 11 39 37 33 12 59 24 57 26 -5 5 -105 -30 -142 -50 -16 -9
-53 -16 -81 -16 -29 0 -58 -6 -70 -15 -19 -14 -19 -15 4 -21 18 -5 20 -9 11
-20 -13 -16 -43 -19 -34 -4 9 15 -6 12 -24 -4 -9 -8 -38 -26 -66 -41 -74 -41
-84 -51 -60 -70 21 -15 14 -19 -32 -15 -13 1 -23 -3 -23 -8 0 -6 -3 -17 -6
-25 -9 -24 28 -15 62 16 21 19 30 35 27 47 -4 13 4 23 29 35 18 10 43 27 56
38 18 17 25 19 31 9 9 -15 69 -8 96 12 14 10 14 14 -5 34 l-21 22 43 0 c70 0
90 -9 84 -35 -4 -14 0 -28 10 -35 12 -11 12 -15 2 -21 -19 -13 -36 -10 -18 2
12 8 10 9 -8 4 -13 -4 -29 -1 -37 5 -8 7 -20 10 -27 7 -7 -3 2 -12 22 -21 l35
-16 -37 6 c-49 8 -141 -19 -203 -60 -68 -45 -179 -149 -214 -200 -34 -49 -61
-133 -61 -191 0 -47 32 -85 110 -129 44 -25 44 -25 20 -35 l-25 -10 25 -1 c26
-2 23 -4 -25 -16 l-30 -8 35 -7 c26 -6 19 -7 -28 -4 -39 2 -80 12 -110 27
l-47 23 2 55 c3 54 12 110 36 220 9 43 16 54 30 52 19 -3 22 9 6 25 -15 15 3
46 69 116 30 31 50 57 45 57 -14 0 -101 -94 -115 -125 -6 -14 -14 -25 -17 -25
-4 0 -32 25 -63 56 -39 39 -62 55 -73 50 -20 -7 -16 -25 9 -40 9 -6 39 -31 65
-56 48 -45 48 -45 35 -80 -7 -19 -13 -49 -13 -66 -1 -17 -8 -51 -16 -74 -8
-23 -15 -67 -15 -96 0 -30 -3 -54 -6 -54 -4 0 -32 22 -64 50 -104 90 -167 213
-152 299 l6 36 7 -30 c5 -24 7 -19 8 25 l2 55 14 -39 c7 -21 19 -44 25 -50 7
-6 5 4 -4 21 -29 58 7 179 77 251 17 17 27 32 22 32 -4 0 0 9 10 20 10 11 14
20 8 20 -13 0 -55 -45 -48 -52 3 -3 -17 -24 -44 -47 -37 -31 -55 -40 -66 -34
-13 7 1 22 66 74 125 98 136 106 120 86 -11 -14 -11 -17 0 -17 8 0 1 -11 -16
-25 -16 -13 -27 -24 -22 -25 8 0 45 22 162 99 64 42 76 46 144 50 88 4 160
-10 255 -50 38 -16 71 -27 74 -24 3 2 -7 9 -22 14 -31 12 -31 14 -9 48 17 25
17 26 -7 18 -14 -4 -29 -11 -34 -16 -13 -12 -43 -12 -50 0 -3 5 3 20 14 32 11
13 19 19 20 14 0 -6 -6 -17 -12 -25 -7 -8 -1 -5 13 8 14 12 28 20 31 17 3 -3
11 1 18 10 7 8 9 15 4 15 -4 0 3 11 16 25 13 14 19 25 14 25 -6 0 -25 -16 -44
-35 -18 -19 -36 -32 -39 -30 -3 3 17 25 45 50 27 24 46 44 41 45 -4 0 -28 -19
-52 -41 -45 -42 -60 -44 -28 -5 10 12 1 5 -20 -13 -39 -36 -53 -69 -16 -35 20
18 20 16 -2 -18 -13 -21 -28 -38 -33 -38 -6 0 -5 5 2 12 21 21 13 32 -8 13
-20 -18 -21 -18 -15 1 6 18 6 18 -8 2 -22 -27 -31 -21 -12 8 9 14 14 28 12 31
-3 2 -13 -7 -22 -21 -10 -14 -26 -26 -36 -26 -25 0 -19 30 24 120 17 36 31 71
30 78 -1 7 2 11 5 8 3 -3 29 16 57 43 55 52 258 161 365 196 46 15 144 26 297
33 17 1 65 -5 105 -13z m-725 -80 c0 -16 -115 -90 -124 -81 -3 2 9 12 27 21
18 9 30 19 27 22 -3 2 -15 -1 -27 -7 -16 -8 -20 -9 -16 -1 7 10 93 59 107 61
3 0 6 -7 6 -15z m-781 -11 c19 -15 19 -16 -1 -10 -18 5 -18 5 -4 -7 13 -10 14
-14 3 -25 -14 -13 -18 -9 -28 31 -7 31 1 34 30 11z m759 -84 c-10 -16 -115
-66 -115 -55 0 4 108 63 118 65 2 0 0 -5 -3 -10z m-145 -18 c0 -5 -23 -21 -51
-37 -28 -15 -47 -30 -42 -34 6 -3 9 -14 7 -24 -1 -11 0 -17 3 -14 2 3 5 9 5
14 0 4 9 14 20 21 10 7 16 17 13 21 -2 5 7 13 21 20 32 14 34 14 34 -4 0 -8
-16 -27 -36 -42 -21 -15 -54 -43 -74 -60 -39 -35 -62 -44 -39 -17 14 18 21 44
11 44 -13 -1 -67 -50 -56 -50 6 0 17 7 24 15 7 8 17 15 23 15 12 0 -46 -54
-78 -71 -16 -10 -15 -7 5 15 21 24 22 26 5 20 -13 -4 -7 5 15 25 19 17 27 28
18 25 -37 -13 -15 7 73 65 95 64 99 66 99 53z m85 -42 c-3 -5 -14 -10 -23 -9
-14 0 -13 2 3 9 27 11 27 11 20 0z m-375 -4 c0 -2 -12 -11 -27 -20 l-28 -17
24 20 c23 21 31 25 31 17z m235 -16 c-3 -5 -12 -10 -18 -10 -7 0 -6 4 3 10 19
12 23 12 15 0z m71 -16 c-3 -9 -6 -17 -6 -20 0 -2 -7 -1 -15 2 -12 5 -13 10
-4 20 16 19 33 18 25 -2z m-276 -128 c0 -2 -8 -10 -17 -17 -16 -13 -17 -12 -4
4 13 16 21 21 21 13z m1345 -185 c200 -49 396 -170 477 -296 30 -46 38 -68 36
-95 -2 -26 -7 -35 -20 -34 -10 1 -16 -3 -15 -8 1 -5 -18 -20 -43 -34 -41 -24
-36 -17 15 22 34 25 -75 -37 -171 -97 -128 -81 -176 -93 -359 -93 -135 0 -156
2 -210 24 -33 13 -54 25 -46 28 9 3 -2 14 -30 29 -51 28 -38 25 46 -12 48 -21
53 -25 25 -20 l-35 6 33 -15 c82 -38 212 -43 380 -14 107 18 62 19 -74 3 -77
-10 -147 -13 -174 -9 -39 6 -41 8 -20 14 21 5 16 8 -30 17 -30 6 -86 25 -125
42 -82 36 -71 42 13 7 31 -13 75 -26 97 -29 46 -6 33 -1 -73 34 -83 27 -81 39
2 15 30 -9 62 -16 73 -15 10 0 -11 9 -47 20 l-65 18 60 -4 60 -4 -45 11 c-33
8 -57 7 -88 -1 -58 -15 -75 -13 -32 5 l35 14 -32 -3 c-18 -2 -30 0 -27 5 3 4
0 8 -6 8 -6 0 -9 4 -5 9 3 5 -3 11 -12 13 -10 2 38 8 107 13 101 7 116 10 80
16 l-45 6 60 3 c33 1 74 6 90 11 20 5 1 7 -55 4 -47 -3 -125 -6 -175 -7 l-90
-1 65 -7 65 -7 -63 -1 c-60 -2 -63 -1 -82 30 -10 18 -17 34 -14 37 2 3 37 8
77 12 l72 7 -85 -1 c-72 -2 -85 0 -88 15 -4 19 45 48 67 40 9 -3 11 0 6 8 -5
9 -4 11 4 6 6 -4 21 -4 32 -1 14 5 18 10 10 14 -11 7 129 60 214 81 39 9 39 9
-10 4 -27 -3 -71 -12 -97 -20 -26 -9 -51 -13 -56 -10 -22 14 -152 -43 -183
-80 -7 -9 14 0 47 20 81 49 92 46 14 -5 -47 -30 -66 -37 -74 -29 -17 18 48 66
131 97 40 15 70 29 68 31 -12 12 -145 -41 -183 -73 -23 -20 -42 -32 -42 -26 0
6 -9 20 -20 31 -11 11 -20 17 -20 13 0 -3 -3 -3 -7 0 -3 4 4 18 17 32 13 14
18 25 12 25 -6 0 -18 -10 -26 -21 -14 -21 -46 -21 -46 -1 0 18 117 120 166
145 27 14 77 30 109 36 33 6 71 13 85 15 50 9 217 -4 295 -23z m-1591 -26
c-21 -19 -43 -34 -49 -34 -5 -1 8 15 30 34 22 19 44 34 49 35 5 0 -8 -16 -30
-35z m691 -5 c3 -5 -1 -10 -9 -10 -9 0 -16 5 -16 10 0 6 4 10 9 10 6 0 13 -4
16 -10z m173 -30 c24 -17 42 -38 42 -49 0 -11 3 -27 6 -36 6 -14 3 -14 -19 -4
-15 7 -24 15 -22 19 3 4 -9 13 -26 20 -19 8 -27 16 -21 22 6 6 17 6 30 -1 38
-21 35 -11 -6 19 -23 17 -42 32 -42 35 0 12 20 3 58 -25z m112 20 c-19 -13 -4
-13 39 0 19 5 37 8 39 6 2 -3 -27 -14 -64 -25 -37 -11 -70 -18 -73 -16 -2 3 2
5 10 5 12 0 11 2 -1 10 -11 8 -7 9 15 5 17 -3 24 -2 16 1 -11 5 -11 8 0 15 8
5 19 9 24 9 6 0 3 -5 -5 -10z m-121 -117 c109 -52 165 -104 236 -218 60 -96
84 -159 96 -257 13 -107 4 -126 -76 -151 -103 -32 -170 -39 -255 -27 -184 25
-453 128 -539 205 -51 46 -46 59 6 18 45 -36 137 -93 149 -93 4 0 -14 14 -42
31 -89 57 -151 119 -139 139 4 6 22 -2 45 -20 42 -33 62 -40 37 -12 -15 16
-15 18 3 18 10 0 18 -5 17 -10 -1 -6 7 -11 18 -12 11 0 58 -20 105 -44 47 -24
101 -44 120 -46 l35 -2 -40 20 c-69 35 -135 80 -130 88 3 4 -11 20 -30 35 -20
14 -33 30 -31 34 3 4 -10 23 -29 41 -19 19 -35 38 -35 44 0 5 15 -4 33 -21 66
-62 184 -143 267 -181 261 -122 300 -134 88 -26 -82 41 -148 76 -148 79 0 5
61 -20 123 -51 26 -14 47 -22 47 -19 0 2 -33 21 -72 41 -81 40 -226 134 -253
163 -28 32 1 32 40 1 53 -42 105 -73 111 -67 3 3 -3 10 -15 16 -25 14 -115 91
-105 91 4 0 50 -31 103 -68 112 -80 127 -90 117 -74 -13 21 3 13 79 -38 42
-28 83 -54 93 -57 19 -7 -129 96 -167 116 -15 8 -21 9 -17 2 4 -6 3 -11 -2
-11 -10 0 -162 128 -162 136 0 3 24 -11 53 -31 55 -38 36 -18 -49 53 -47 40
-12 25 56 -22 56 -40 70 -48 70 -43 0 3 -36 33 -80 68 -73 57 -100 82 -67 63
28 -17 247 -181 322 -241 l80 -64 -70 66 c-87 83 -193 170 -265 218 -30 20
-50 37 -44 37 5 0 25 -11 44 -25 44 -33 60 -32 29 2 l-24 27 32 -22 c43 -30
55 -27 18 5 l-30 25 40 -23 c22 -12 56 -34 75 -48 l35 -25 -25 29 -25 29 35
-24 c19 -13 46 -33 60 -44 l25 -21 -20 24 c-11 13 -42 41 -68 62 -27 22 -46
39 -42 39 14 0 114 -71 170 -120 l60 -54 -70 73 c-38 39 -94 88 -122 108 -29
20 -53 38 -53 40 0 5 6 1 64 -35 21 -13 35 -18 31 -12 -4 7 -28 25 -53 41 -25
16 -43 29 -40 29 13 0 85 -34 113 -53 17 -12 24 -13 15 -4 -8 9 -42 32 -75 52
-56 35 -44 40 18 8 16 -8 31 -12 34 -9 3 2 -21 19 -53 36 l-59 31 40 -6 c22
-4 82 -27 134 -52z m-879 -76 c0 -2 -10 -12 -22 -23 l-23 -19 19 23 c18 21 26
27 26 19z m-50 -41 c0 -2 -8 -10 -17 -17 -16 -13 -17 -12 -4 4 13 16 21 21 21
13z m-115 -106 c-16 -11 -34 -20 -40 -20 -12 0 46 38 60 39 6 1 -3 -8 -20 -19z
m620 -79 c-3 -3 -22 12 -43 33 l-37 39 42 -33 c24 -18 41 -36 38 -39z m24 -40
c24 -17 40 -31 34 -31 -24 0 -153 105 -153 124 0 5 17 -6 38 -26 20 -19 57
-50 81 -67z m70 -77 c11 -13 -44 19 -101 57 -31 22 -59 43 -62 48 -5 8 151
-92 163 -105z m97 -52 c-5 -4 -66 26 -66 33 0 3 16 -3 35 -12 19 -9 33 -18 31
-21z m747 31 c-7 -2 -19 -2 -25 0 -7 3 -2 5 12 5 14 0 19 -2 13 -5z"/>
<path d="M2621 3697 c-22 -36 -43 -87 -36 -87 3 0 18 27 35 60 33 65 34 79 1
27z"/>
<path d="M2695 3614 c-18 -16 -22 -22 -9 -15 18 9 53 42 43 41 -2 -1 -17 -12
-34 -26z"/>
<path d="M2430 3570 c-6 -23 -9 -47 -7 -53 2 -6 9 10 16 37 6 27 10 51 7 53
-3 3 -10 -14 -16 -37z"/>
<path d="M2401 3543 c-6 -21 -10 -49 -10 -63 1 -14 7 2 14 35 15 68 12 87 -4
28z"/>
<path d="M2374 3529 c-4 -7 -8 -44 -10 -83 l-3 -71 9 65 c5 36 11 73 14 83 5
20 0 22 -10 6z"/>
<path d="M2725 3531 c-3 -6 -10 -9 -15 -6 -4 3 -13 -2 -20 -10 -7 -8 -9 -15
-4 -15 5 0 -13 -21 -41 -46 l-50 -46 60 45 c65 48 91 74 82 83 -3 3 -8 0 -12
-5z"/>
<path d="M2709 3483 c-8 -9 -40 -38 -72 -65 -63 -52 -64 -66 -1 -19 49 36 111
101 97 101 -6 0 -17 -7 -24 -17z"/>
<path d="M2314 3466 c-3 -8 -4 -31 -2 -52 3 -36 4 -35 8 14 5 53 4 63 -6 38z"/>
<path d="M2382 3430 c0 -14 2 -19 5 -12 2 6 2 18 0 25 -3 6 -5 1 -5 -13z"/>
<path d="M2699 3423 c-13 -16 -12 -17 4 -4 16 13 21 21 13 21 -2 0 -10 -8 -17
-17z"/>
<path d="M2266 3380 c-4 -30 -6 -73 -3 -95 3 -32 4 -27 7 25 l3 65 7 -55 7
-55 0 60 c1 33 -2 71 -6 85 -7 21 -9 16 -15 -30z"/>
<path d="M2685 3380 c-16 -16 -25 -30 -21 -30 5 0 3 -7 -4 -15 -7 -8 -9 -15
-4 -15 4 0 -3 -12 -17 -27 -21 -24 -19 -23 18 6 24 18 46 38 50 44 3 7 -3 4
-14 -5 -11 -10 -24 -18 -29 -18 -5 1 7 14 26 30 19 17 28 30 21 30 -11 0 -11
3 -1 15 22 26 5 16 -25 -15z m15 -4 c0 -2 -8 -10 -17 -17 -16 -13 -17 -12 -4
4 13 16 21 21 21 13z"/>
<path d="M2213 3270 c0 -36 2 -50 4 -32 2 17 2 47 0 65 -2 17 -4 3 -4 -33z"/>
<path d="M2650 3269 c-53 -50 -56 -54 -15 -21 28 22 59 49 69 61 36 40 11 21
-54 -40z"/>
<path d="M2373 3270 c0 -30 2 -43 4 -27 2 15 2 39 0 55 -2 15 -4 2 -4 -28z"/>
<path d="M2193 3245 c0 -33 2 -45 4 -27 2 18 2 45 0 60 -2 15 -4 0 -4 -33z"/>
<path d="M2392 3280 c0 -14 2 -19 5 -12 2 6 2 18 0 25 -3 6 -5 1 -5 -13z"/>
<path d="M2544 3224 c-18 -14 -18 -14 6 -3 31 14 36 19 24 19 -6 0 -19 -7 -30
-16z"/>
<path d="M2430 3185 c-14 -8 -20 -14 -14 -15 5 0 19 7 30 15 24 18 16 19 -16
0z"/>
<path d="M2135 3022 c-25 -18 -43 -36 -41 -41 8 -12 -31 -44 -43 -37 -5 4 -37
-16 -70 -44 -62 -51 -84 -63 -60 -32 11 14 10 14 -8 -2 -13 -10 -20 -23 -17
-27 7 -11 33 3 58 30 23 25 44 28 25 4 -12 -16 -12 -17 1 -7 17 12 221 173
232 183 4 4 -1 7 -12 7 -10 0 -40 -15 -65 -34z m55 25 c0 -8 -82 -69 -86 -64
-3 3 14 19 38 36 45 31 48 33 48 28z m-150 -123 c-8 -8 -23 -20 -34 -25 -15
-7 -13 -3 7 15 31 29 47 35 27 10z"/>
<path d="M1741 3011 c-7 -5 -12 -14 -9 -21 2 -7 10 -4 22 9 19 21 12 28 -13
12z"/>
<path d="M1582 2975 c-21 -19 -39 -41 -39 -50 0 -12 5 -11 23 6 13 12 22 25
21 29 -1 4 9 17 23 28 14 12 22 21 18 22 -5 0 -25 -16 -46 -35z m-2 -19 c0 -2
-8 -10 -17 -17 -16 -13 -17 -12 -4 4 13 16 21 21 21 13z"/>
<path d="M1657 2913 c-12 -11 -8 -23 8 -23 8 0 15 7 15 15 0 16 -12 20 -23 8z"/>
<path d="M1787 2859 c-32 -22 -57 -42 -57 -45 0 -5 90 56 115 78 25 22 -8 4
-58 -33z"/>
<path d="M1450 2845 c-7 -8 -8 -15 -2 -15 5 0 15 7 22 15 7 8 8 15 2 15 -5 0
-15 -7 -22 -15z"/>
<path d="M1835 2833 c-12 -2 -34 -15 -50 -29 -21 -18 -22 -21 -6 -10 19 12 28
13 40 4 9 -7 13 -9 9 -4 -4 5 3 17 15 27 12 10 20 18 17 17 -3 0 -14 -3 -25
-5z"/>
<path d="M1522 2818 c-7 -7 -12 -18 -12 -25 0 -11 5 -11 20 -3 11 6 20 17 20
25 0 18 -12 19 -28 3z"/>
<path d="M1380 2775 c-7 -9 -11 -18 -8 -20 3 -3 11 1 18 10 7 9 11 18 8 20 -3
3 -11 -1 -18 -10z"/>
<path d="M1662 2774 c-12 -8 -26 -13 -30 -10 -4 2 -14 1 -21 -4 -10 -6 -8 -9
8 -15 20 -6 20 -25 0 -25 -6 0 -7 5 -4 10 3 6 2 10 -4 10 -17 0 -22 -18 -6
-24 9 -3 34 6 55 20 43 29 50 37 23 27 -16 -6 -16 -5 -4 10 17 21 12 22 -17 1z
m3 -24 c-3 -5 -11 -10 -16 -10 -6 0 -7 5 -4 10 3 6 11 10 16 10 6 0 7 -4 4
-10z"/>
<path d="M1450 2730 c0 -5 5 -10 10 -10 6 0 10 5 10 10 0 6 -4 10 -10 10 -5 0
-10 -4 -10 -10z"/>
<path d="M1707 2711 c-74 -43 -78 -54 -13 -31 60 20 86 36 86 51 0 15 -23 9
-73 -20z"/>
<path d="M1389 2653 c-13 -16 -12 -17 4 -4 16 13 21 21 13 21 -2 0 -10 -8 -17
-17z"/>
<path d="M1601 2613 c-50 -32 -91 -62 -92 -68 -1 -15 -20 -35 -33 -35 -6 0 -2
7 8 15 11 8 15 15 9 15 -14 0 -34 -25 -26 -33 3 -4 2 -7 -3 -7 -5 0 -20 -10
-34 -21 -24 -20 -23 -20 13 1 20 12 42 20 48 18 5 -2 -22 -22 -62 -44 -40 -22
-73 -48 -75 -57 -1 -9 0 -17 3 -17 16 0 141 100 141 114 0 5 11 16 24 25 31
20 178 142 178 147 0 8 -9 3 -99 -53z"/>
<path d="M1532 2629 c-23 -17 -42 -33 -42 -35 0 -3 20 9 45 27 40 29 51 39 42
39 -2 0 -22 -14 -45 -31z"/>
<path d="M1331 2602 c-7 -13 -11 -26 -8 -28 8 -8 29 25 25 38 -3 8 -9 4 -17
-10z"/>
<path d="M1504 2581 c-35 -21 -60 -51 -28 -32 24 13 71 50 64 51 -3 0 -19 -9
-36 -19z"/>
<path d="M1460 2394 c-170 -117 -187 -130 -187 -148 0 -13 3 -13 21 0 24 17
40 18 31 3 -4 -6 2 -5 14 3 20 12 20 13 0 23 -11 6 -16 14 -13 18 11 11 26 8
19 -3 -9 -15 11 -12 24 4 8 10 9 15 1 18 -6 2 4 11 22 21 l33 19 -25 -21 c-14
-11 -20 -21 -14 -21 6 0 27 16 47 35 21 20 37 34 37 32 0 -2 15 8 33 24 17 15
46 39 62 53 54 46 22 27 -105 -60z m-140 -119 c0 -2 -10 -9 -22 -15 -22 -11
-22 -10 -4 4 21 17 26 19 26 11z"/>
<path d="M1720 2424 c-76 -56 -121 -95 -90 -79 52 28 189 137 169 135 -2 -1
-38 -26 -79 -56z"/>
<path d="M1664 2438 l-19 -23 23 19 c21 18 27 26 19 26 -2 0 -12 -10 -23 -22z"/>
<path d="M1240 2383 l-65 -68 68 65 c62 60 72 70 64 70 -1 0 -32 -30 -67 -67z"/>
<path d="M1239 2413 l-24 -28 28 24 c25 23 32 31 24 31 -2 0 -14 -12 -28 -27z"/>
<path d="M1579 2403 c-13 -16 -12 -17 4 -4 9 7 17 15 17 17 0 8 -8 3 -21 -13z"/>
<path d="M1311 2380 c-14 -12 -18 -20 -10 -20 8 0 1 -12 -16 -26 -35 -29 -15
-21 31 13 17 12 31 30 31 38 0 20 -7 19 -36 -5z"/>
<path d="M1239 2353 l-34 -38 38 34 c34 33 42 41 34 41 -2 0 -19 -17 -38 -37z"/>
<path d="M1715 2330 c-3 -5 -2 -10 4 -10 5 0 13 5 16 10 3 6 2 10 -4 10 -5 0
-13 -4 -16 -10z"/>
<path d="M1184 2240 c-55 -36 -117 -91 -74 -65 15 9 131 93 139 101 13 13 -12
-1 -65 -36z"/>
<path d="M1515 2270 c-3 -5 -2 -10 4 -10 5 0 13 5 16 10 3 6 2 10 -4 10 -5 0
-13 -4 -16 -10z"/>
<path d="M1299 2235 c-1 -3 -2 -9 -3 -15 0 -5 -10 -16 -21 -25 l-20 -16 20 10
c11 5 29 17 40 25 19 15 19 16 1 9 -13 -4 -17 -3 -12 5 4 7 5 12 2 12 -3 0 -7
-2 -7 -5z"/>
<path d="M1400 2205 c-14 -16 -10 -18 14 -9 9 3 16 10 16 15 0 14 -16 11 -30
-6z"/>
<path d="M1462 2206 c-24 -13 -24 -13 7 -13 18 0 27 4 20 7 -8 6 -7 9 2 13 8
3 10 6 4 6 -5 0 -21 -6 -33 -13z"/>
<path d="M1561 3642 c0 -7 -6 -10 -12 -6 -17 10 2 -22 56 -95 30 -41 43 -67
37 -73 -12 -12 -55 8 -47 22 3 5 -4 14 -15 20 -11 6 -18 15 -15 20 3 5 1 11
-5 15 -6 4 -8 9 -6 13 2 4 -6 20 -18 35 -22 28 -23 28 -22 5 1 -13 5 -29 9
-35 5 -8 3 -13 -3 -13 -7 0 -8 -5 -3 -12 4 -7 8 -22 8 -32 0 -11 5 -21 12 -23
8 -3 11 3 8 16 -3 19 -1 20 18 10 32 -17 35 -23 10 -15 -38 12 -26 -2 30 -34
53 -31 86 -40 54 -16 -10 8 -14 17 -9 20 9 6 27 -21 24 -36 -1 -4 7 -12 18
-18 10 -6 40 -39 65 -74 50 -70 84 -105 72 -73 -4 10 -8 49 -9 85 l-2 67 -3
-58 c-6 -85 -23 -60 -25 36 -2 76 -2 78 -5 20 -4 -67 -23 -88 -23 -25 0 20 -3
55 -7 77 l-7 40 -7 -30 c-6 -29 -7 -29 -9 10 l-3 40 -7 -40 -7 -40 -2 35 c-1
19 -8 58 -16 85 -14 47 -15 47 -10 10 15 -116 17 -140 6 -125 -6 8 -11 26 -12
40 0 22 -1 23 -8 6 -7 -18 -8 -18 -14 -2 -4 10 -7 32 -8 49 -1 31 -1 31 -10 7
-6 -18 -7 -12 -3 23 6 54 -1 61 -16 15 -9 -31 -10 -30 -5 12 l5 45 -14 -30
-14 -30 -2 30 c-1 26 -3 27 -9 10 -8 -19 -9 -18 -13 5 -3 14 -6 19 -7 12z
m-16 -72 c3 -5 2 -10 -4 -10 -5 0 -13 5 -16 10 -3 6 -2 10 4 10 5 0 13 -4 16
-10z m10 -38 c-3 -3 -11 0 -18 7 -9 10 -8 11 6 5 10 -3 15 -9 12 -12z m192
-149 c-3 -10 -5 -4 -5 12 0 17 2 24 5 18 2 -7 2 -21 0 -30z"/>
<path d="M1662 3550 c0 -14 2 -19 5 -12 2 6 2 18 0 25 -3 6 -5 1 -5 -13z"/>
<path d="M1549 3478 c-7 -24 -4 -40 12 -54 12 -11 15 -20 9 -24 -5 -3 6 -14
26 -23 19 -10 33 -13 29 -7 -8 13 1 13 26 0 10 -6 19 -8 19 -6 0 3 -18 15 -39
26 -22 11 -43 25 -46 31 -4 6 8 3 26 -7 34 -17 34 -17 -9 25 -38 37 -50 46
-53 39z m61 -88 c8 -5 11 -10 5 -10 -5 0 -17 5 -25 10 -8 5 -10 10 -5 10 6 0
17 -5 25 -10z"/>
<path d="M1604 3291 c8 -13 66 -44 72 -39 2 3 -15 15 -38 28 -22 13 -38 18
-34 11z"/>
<path d="M1623 3249 c9 -6 15 -14 12 -19 -3 -5 4 -11 15 -15 11 -4 18 -10 16
-14 -4 -6 26 -7 64 -2 8 1 -14 15 -49 31 -63 30 -93 39 -58 19z m82 -39 c13
-6 15 -9 5 -9 -8 0 -22 4 -30 9 -18 12 -2 12 25 0z"/>
<path d="M1715 3165 c17 -8 37 -14 45 -14 8 0 -1 7 -20 14 -46 18 -64 17 -25
0z"/>
<path d="M2950 3215 c-71 -15 -124 -33 -100 -35 8 -1 -1 -8 -20 -15 -46 -18
-27 -18 30 -1 35 10 41 15 25 19 -13 4 -11 5 7 3 17 -2 25 1 21 7 -4 7 8 8 33
4 21 -4 64 -9 94 -12 44 -3 48 -2 20 4 -28 7 -17 9 55 11 73 2 83 4 55 10 -34
9 -48 8 -160 -4 l-55 -5 55 13 c71 18 25 18 -60 1z"/>
<path d="M3145 3180 l40 -6 -35 -5 c-19 -3 3 -5 49 -5 79 1 81 2 45 13 -22 6
-61 11 -89 11 l-50 -1 40 -7z"/>
<path d="M3350 3150 c47 -22 92 -40 100 -40 8 0 62 -25 120 -55 l105 -55 -48
45 c-55 50 -101 73 -233 116 -127 40 -145 36 -44 -11z"/>
<path d="M2710 3146 c-43 -16 -140 -65 -140 -71 0 -2 33 11 73 29 39 18 83 37
97 44 35 15 13 13 -30 -2z"/>
<path d="M2835 3100 c-22 -10 -36 -19 -32 -19 12 -1 77 27 77 33 0 7 3 8 -45
-14z"/>
<path d="M3110 3090 c21 -7 18 -8 -19 -9 -24 -1 -41 -4 -38 -8 4 -3 23 -6 42
-5 20 1 33 -2 31 -7 -8 -12 21 -34 34 -26 8 5 7 12 -4 24 -12 13 -13 20 -4 29
9 9 3 12 -27 11 -35 -1 -37 -2 -15 -9z"/>
<path d="M2483 3043 c-50 -34 -156 -155 -113 -128 15 9 13 2 -16 -49 -40 -72
-25 -87 18 -19 21 33 62 80 91 105 30 26 54 53 54 62 0 21 -28 5 -89 -52 -26
-24 -48 -40 -48 -35 0 11 77 85 125 120 43 32 26 28 -22 -4z m27 -36 c0 -2
-15 -13 -32 -26 l-33 -22 28 25 c26 24 37 31 37 23z"/>
<path d="M3340 3064 c0 -2 19 -13 43 -24 41 -20 41 -20 17 -1 -23 19 -60 34
-60 25z"/>
<path d="M3405 3055 c11 -9 34 -23 50 -31 28 -14 29 -14 10 1 -11 9 -33 23
-50 31 -28 14 -29 14 -10 -1z"/>
<path d="M2952 3048 c6 -18 28 -21 28 -4 0 9 -7 16 -16 16 -9 0 -14 -5 -12
-12z"/>
<path d="M3567 3018 c7 -8 10 -17 8 -20 -3 -3 17 -24 45 -48 55 -46 70 -44 18
3 -21 18 -26 26 -14 23 27 -9 6 14 -36 38 -23 14 -29 15 -21 4z m38 -28 c3 -5
2 -10 -4 -10 -5 0 -13 5 -16 10 -3 6 -2 10 4 10 5 0 13 -4 16 -10z"/>
<path d="M3415 2989 c-8 -12 3 -29 19 -29 22 0 26 36 5 37 -10 1 -21 -2 -24
-8z"/>
<path d="M2894 2966 c-8 -22 3 -33 18 -18 9 9 9 15 0 24 -9 9 -13 7 -18 -6z"/>
<path d="M2747 2964 c-14 -14 -7 -35 11 -32 9 2 17 10 17 17 0 16 -18 25 -28
15z"/>
<path d="M2482 2909 c-51 -49 -97 -108 -90 -115 3 -3 22 17 42 45 20 27 52 63
72 80 19 17 31 31 27 31 -4 0 -27 -19 -51 -41z"/>
<path d="M2420 2880 c-24 -28 -41 -53 -38 -55 2 -2 23 20 47 50 53 69 47 72
-9 5z"/>
<path d="M3035 2920 c-14 -7 -8 -8 20 -3 22 3 42 7 44 9 9 8 -45 2 -64 -6z"/>
<path d="M2649 2873 l-24 -28 28 24 c25 23 32 31 24 31 -2 0 -14 -12 -28 -27z"/>
<path d="M2990 2893 c-8 -2 -21 -6 -28 -9 -25 -7 10 -31 37 -25 26 5 26 5 -4
11 -27 6 -25 7 25 17 44 9 48 11 20 11 -19 0 -42 -2 -50 -5z"/>
<path d="M3620 2890 c0 -5 4 -10 9 -10 6 0 13 5 16 10 3 6 -1 10 -9 10 -9 0
-16 -4 -16 -10z"/>
<path d="M2681 2870 c-13 -11 -19 -20 -14 -20 6 0 18 9 28 20 23 25 17 25 -14
0z"/>
<path d="M2862 2879 c2 -6 8 -10 13 -10 5 0 11 4 13 10 2 6 -4 11 -13 11 -9 0
-15 -5 -13 -11z"/>
<path d="M3220 2845 c0 -8 5 -15 10 -15 6 0 10 7 10 15 0 8 -4 15 -10 15 -5 0
-10 -7 -10 -15z"/>
<path d="M2549 2813 l-24 -28 28 24 c25 23 32 31 24 31 -2 0 -14 -12 -28 -27z"/>
<path d="M2765 2830 c-3 -6 1 -7 9 -4 18 7 21 14 7 14 -6 0 -13 -4 -16 -10z"/>
<path d="M3284 2825 c-4 -9 -4 -18 -1 -22 11 -10 59 7 54 20 -6 19 -46 21 -53
2z m36 1 c0 -3 -4 -8 -10 -11 -5 -3 -10 -1 -10 4 0 6 5 11 10 11 6 0 10 -2 10
-4z"/>
<path d="M3170 2820 c0 -5 7 -7 15 -4 8 4 15 8 15 10 0 2 -7 4 -15 4 -8 0 -15
-4 -15 -10z"/>
<path d="M3360 2816 c0 -9 7 -16 16 -16 9 0 14 5 12 12 -6 18 -28 21 -28 4z"/>
<path d="M3605 2821 c-6 -11 9 -23 19 -14 9 9 7 23 -3 23 -6 0 -12 -4 -16 -9z"/>
<path d="M2715 2792 c-27 -8 -45 -17 -40 -19 6 -2 35 5 65 16 65 23 47 26 -25
3z"/>
<path d="M3145 2801 c3 -6 22 -11 42 -11 44 0 41 5 -10 14 -27 5 -37 4 -32 -3z"/>
<path d="M2975 2791 c-7 -12 12 -24 25 -16 11 7 4 25 -10 25 -5 0 -11 -4 -15
-9z"/>
<path d="M2711 2765 c-40 -13 -78 -29 -85 -36 -8 -9 -7 -10 7 -5 10 3 53 18
95 32 121 42 108 49 -17 9z"/>
<path d="M2920 2775 c0 -8 5 -15 10 -15 6 0 10 7 10 15 0 8 -4 15 -10 15 -5 0
-10 -7 -10 -15z"/>
<path d="M3736 2764 c-23 -23 -20 -30 4 -9 11 10 20 20 20 22 0 7 -9 2 -24
-13z"/>
<path d="M2810 2760 c-18 -12 -2 -12 25 0 13 6 15 9 5 9 -8 0 -22 -4 -30 -9z"/>
<path d="M3507 2763 c-4 -3 -7 -12 -7 -20 0 -11 5 -11 20 -3 11 6 20 15 20 20
0 11 -23 13 -33 3z"/>
<path d="M3620 2745 c0 -9 5 -15 11 -13 6 2 11 8 11 13 0 5 -5 11 -11 13 -6 2
-11 -4 -11 -13z"/>
<path d="M2767 2723 c-43 -14 -75 -28 -73 -30 4 -5 167 45 175 53 11 10 -31 1
-102 -23z"/>
<path d="M3014 2729 c-3 -6 -1 -16 5 -22 8 -8 11 -5 11 11 0 24 -5 28 -16 11z"/>
<path d="M3540 2715 c0 -9 5 -15 11 -13 6 2 11 8 11 13 0 5 -5 11 -11 13 -6 2
-11 -4 -11 -13z"/>
<path d="M3654 2708 l-19 -23 23 19 c21 18 27 26 19 26 -2 0 -12 -10 -23 -22z"/>
<path d="M3690 2700 c-6 -11 -8 -20 -6 -20 3 0 10 9 16 20 6 11 8 20 6 20 -3
0 -10 -9 -16 -20z"/>
<path d="M2918 2693 c7 -3 16 -2 19 1 4 3 -2 6 -13 5 -11 0 -14 -3 -6 -6z"/>
<path d="M2156 2682 c-3 -6 -1 -14 5 -17 15 -10 25 3 12 16 -7 7 -13 7 -17 1z"/>
<path d="M3625 2660 c-3 -5 -1 -10 4 -10 6 0 11 5 11 10 0 6 -2 10 -4 10 -3 0
-8 -4 -11 -10z"/>
<path d="M2280 2631 c0 -13 21 -27 50 -34 24 -6 24 -5 -5 18 -32 26 -45 31
-45 16z"/>
<path d="M2565 2620 c-3 -5 -1 -10 4 -10 6 0 11 5 11 10 0 6 -2 10 -4 10 -3 0
-8 -4 -11 -10z"/>
<path d="M1827 2564 c-48 -38 -60 -52 -29 -35 22 12 89 70 81 71 -3 0 -27 -16
-52 -36z"/>
<path d="M1954 2565 c2 -32 25 -82 26 -55 0 10 9 4 26 -15 18 -21 21 -23 10
-5 -24 36 -19 49 7 20 12 -14 19 -21 15 -16 -18 23 -6 27 17 6 14 -13 25 -20
25 -16 0 5 8 2 18 -5 16 -13 16 -13 2 6 -40 54 -60 75 -60 63 0 -7 -10 -1 -21
15 -20 26 -39 28 -39 4 0 -8 3 -8 9 1 7 11 9 10 14 -3 5 -11 3 -14 -5 -9 -8 5
-9 2 -5 -10 4 -9 3 -15 -2 -11 -5 3 -11 0 -13 -7 -3 -7 -7 -5 -11 6 -4 10 -3
15 3 11 14 -9 12 8 -4 30 -13 18 -14 17 -12 -10z m76 -36 c0 -6 -4 -7 -10 -4
-5 3 -10 11 -10 16 0 6 5 7 10 4 6 -3 10 -11 10 -16z m41 -22 c12 -22 12 -22
-10 -3 -11 11 -21 23 -21 28 0 14 19 -1 31 -25z"/>
<path d="M2359 2533 c-13 -16 -12 -17 4 -4 9 7 17 15 17 17 0 8 -8 3 -21 -13z"/>
<path d="M1981 2441 c14 -22 79 -79 79 -69 0 2 -21 24 -47 48 -27 27 -40 35
-32 21z"/>
<path d="M1964 2419 c13 -21 76 -76 76 -66 0 1 -21 23 -46 47 -29 28 -40 35
-30 19z"/>
<path d="M1813 2384 c-6 -15 29 -75 55 -95 16 -13 16 -12 0 7 -35 41 -17 37
28 -6 l47 -45 -52 64 c-28 36 -51 70 -51 75 0 6 7 -1 17 -14 9 -14 28 -38 42
-53 31 -34 88 -77 76 -57 -6 10 -4 12 7 7 11 -4 15 0 13 11 -1 9 -8 16 -15 14
-7 -2 -25 9 -40 23 -14 14 -29 23 -32 19 -3 -3 -18 10 -32 29 -27 35 -54 44
-63 21z m36 -49 c0 -5 -6 -1 -14 9 -8 11 -15 27 -15 35 1 17 29 -26 29 -44z
m97 -37 c28 -30 17 -30 -18 0 -16 13 -24 32 -15 32 2 0 16 -14 33 -32z"/>
<path d="M2122 2357 c-8 -9 -12 -26 -10 -39 l3 -23 13 23 c7 13 12 30 10 39
-3 15 -4 15 -16 0z"/>
<path d="M1784 2246 c-5 -14 31 -96 42 -96 3 0 4 6 1 13 -3 8 -1 20 5 28 8 11
9 11 5 -3 -6 -19 35 -79 79 -118 24 -21 23 -19 -5 12 -20 22 -30 41 -26 49 5
8 4 10 -3 5 -8 -5 -10 -1 -5 9 4 13 8 14 14 4 4 -7 6 -16 4 -19 -2 -4 10 -20
27 -36 18 -16 26 -21 19 -11 -15 20 -2 23 19 5 12 -11 12 -10 3 2 -6 8 -9 23
-8 32 2 10 -2 21 -7 25 -6 3 -8 1 -4 -5 14 -22 -12 -20 -34 3 -13 13 -27 22
-31 19 -4 -2 -16 7 -25 21 -9 13 -21 22 -27 18 -6 -4 -8 0 -4 11 4 10 3 15 -3
11 -6 -3 -10 0 -10 7 0 10 -3 9 -11 -2 -9 -12 -10 -11 -6 8 6 24 -1 30 -9 8z
m36 -61 c0 -5 -5 -3 -10 5 -5 8 -10 20 -10 25 0 6 5 3 10 -5 5 -8 10 -19 10
-25z m40 -25 c6 -11 8 -20 6 -20 -3 0 -10 9 -16 20 -6 11 -8 20 -6 20 3 0 10
-9 16 -20z m61 -47 c13 -16 12 -17 -3 -4 -17 13 -22 21 -14 21 2 0 10 -8 17
-17z"/>
<path d="M2046 2171 c-3 -4 -2 -28 3 -52 l9 -44 1 53 c1 51 -2 61 -13 43z"/>
<path d="M2010 2055 c0 -8 5 -15 10 -15 6 0 10 7 10 15 0 8 -4 15 -10 15 -5 0
-10 -7 -10 -15z"/>
<path d="M2065 1999 c-4 -6 3 -21 16 -35 23 -25 57 -30 94 -14 19 8 19 9 -2 9
-12 1 -35 12 -51 26 -33 27 -47 31 -57 14z"/>
<path d="M2010 1979 c0 -5 5 -7 10 -4 6 3 10 8 10 11 0 2 -4 4 -10 4 -5 0 -10
-5 -10 -11z"/>
<path d="M2434 3134 c-18 -14 -18 -14 6 -3 31 14 36 19 24 19 -6 0 -19 -7 -30
-16z"/>
<path d="M2170 2950 c-14 -11 -20 -20 -13 -20 6 0 15 5 18 10 11 18 24 11 20
-11 -2 -12 0 -19 7 -17 14 5 20 38 7 38 -6 0 -7 5 -4 10 10 16 -8 11 -35 -10z"/>
<path d="M3026 2622 c-27 -9 -45 -17 -40 -19 5 -2 34 5 64 16 67 24 45 26 -24
3z"/>
<path d="M2925 2613 c-26 -13 -82 -56 -134 -102 -21 -18 3 -3 104 67 76 51 88
66 30 35z"/>
<path d="M3220 2620 c-24 -5 -5 -8 59 -9 52 0 92 1 90 3 -9 8 -116 12 -149 6z"/>
<path d="M2961 2579 c-30 -10 -57 -22 -60 -26 -3 -3 2 -3 12 0 55 20 64 15 12
-7 -70 -30 -68 -30 -59 -13 4 7 3 9 -2 4 -5 -5 -9 -14 -9 -20 0 -5 -6 -12 -14
-15 -9 -3 -11 0 -6 8 5 9 4 11 -4 6 -6 -4 -9 -11 -6 -16 3 -4 -2 -13 -10 -20
-30 -25 -14 -30 18 -7 17 14 47 32 66 42 36 18 181 70 216 77 11 2 -7 4 -40 5
-34 0 -83 -8 -114 -18z"/>
<path d="M3115 2575 c-5 -2 -43 -13 -83 -26 -86 -26 -91 -37 -6 -13 126 34
149 42 124 42 -14 0 -29 -1 -35 -3z"/>
<path d="M3336 2573 c-4 -5 -38 -12 -74 -18 -60 -9 -50 -10 98 -10 91 0 149 3
130 7 -23 4 -12 6 30 3 l65 -3 -50 13 c-55 14 -187 19 -199 8z m102 -10 c-10
-2 -26 -2 -35 0 -10 3 -2 5 17 5 19 0 27 -2 18 -5z"/>
<path d="M3598 2543 c6 -2 18 -2 25 0 6 3 1 5 -13 5 -14 0 -19 -2 -12 -5z"/>
<path d="M3308 2533 c7 -3 16 -2 19 1 4 3 -2 6 -13 5 -11 0 -14 -3 -6 -6z"/>
<path d="M3548 2533 c6 -2 18 -2 25 0 6 3 1 5 -13 5 -14 0 -19 -2 -12 -5z"/>
<path d="M3195 2523 c-35 -8 -86 -25 -83 -28 2 -1 41 5 88 15 50 11 71 18 50
18 -19 0 -44 -2 -55 -5z"/>
<path d="M2875 2491 c-29 -17 -84 -72 -57 -57 6 4 12 3 12 -3 0 -5 22 5 49 22
56 37 60 50 5 18 -20 -12 -39 -20 -42 -17 -2 3 12 15 32 27 20 11 36 23 36 25
0 6 -3 5 -35 -15z"/>
<path d="M3435 2476 c69 -11 68 -11 -75 -11 -114 0 -159 -4 -208 -19 -41 -12
-59 -22 -50 -27 7 -4 15 -4 18 0 3 5 41 16 86 25 102 21 400 16 479 -8 63 -20
83 -19 30 0 -52 19 -258 54 -310 53 -32 -1 -26 -4 30 -13z"/>
<path d="M3222 2438 c-30 -5 -52 -11 -50 -13 2 -1 62 0 133 5 72 4 107 8 79 8
-28 1 -64 4 -80 6 -16 2 -53 0 -82 -6z"/>
<path d="M3585 2428 c22 -5 84 -21 139 -34 54 -14 100 -23 103 -20 7 7 -53 24
-161 46 -100 20 -154 26 -81 8z"/>
<path d="M3095 2394 c-38 -8 -92 -17 -120 -20 -42 -6 -46 -8 -25 -15 25 -7 25
-7 -4 -8 -16 -1 -27 -4 -23 -7 3 -3 65 -3 137 1 79 5 126 11 118 16 -7 5 -26
9 -43 10 -16 0 -23 3 -15 6 8 2 24 9 35 14 11 5 47 10 80 12 l60 3 -65 1 c-36
0 -96 -6 -135 -13z m-32 -31 c-13 -2 -33 -2 -45 0 -13 2 -3 4 22 4 25 0 35 -2
23 -4z"/>
<path d="M3424 2385 c-4 -8 -18 -15 -33 -15 -19 0 -22 -3 -12 -9 11 -7 4 -11
-25 -14 -25 -2 -16 -4 29 -5 42 -1 81 4 100 12 18 8 41 17 52 19 11 3 -2 6
-30 7 -41 2 -45 3 -25 10 22 7 21 8 -13 9 -25 1 -40 -4 -43 -14z"/>
<path d="M3248 2383 c29 -2 74 -2 100 0 26 2 2 3 -53 3 -55 0 -76 -1 -47 -3z"/>
<path d="M3725 2373 c11 -3 46 -14 79 -24 32 -11 60 -18 63 -15 6 6 -124 46
-146 45 -11 -1 -10 -3 4 -6z"/>
<path d="M3655 2355 c39 -8 84 -16 100 -19 l30 -5 -30 13 c-16 8 -61 16 -100
19 l-70 6 70 -14z"/>
<path d="M3570 2341 c0 -5 -8 -12 -17 -14 -29 -8 49 -7 92 0 l40 7 -30 7 c-46
10 -85 10 -85 0z"/>
<path d="M3068 2333 c7 -3 16 -2 19 1 4 3 -2 6 -13 5 -11 0 -14 -3 -6 -6z"/>
<path d="M3290 2323 c-8 -2 -24 -8 -35 -13 -11 -5 -78 -16 -150 -23 -118 -13
-123 -15 -55 -15 41 0 167 6 280 13 l205 12 -134 2 c-74 0 -132 4 -129 7 3 3
53 9 109 13 l104 8 -90 1 c-49 0 -97 -2 -105 -5z"/>
<path d="M3845 2310 c27 -12 43 -12 25 0 -8 5 -22 9 -30 9 -10 0 -8 -3 5 -9z"/>
<path d="M3003 2303 c20 -2 54 -2 75 0 20 2 3 4 -38 4 -41 0 -58 -2 -37 -4z"/>
<path d="M3638 2283 c6 -2 18 -2 25 0 6 3 1 5 -13 5 -14 0 -19 -2 -12 -5z"/>
<path d="M3353 2253 c9 -2 25 -2 35 0 9 3 1 5 -18 5 -19 0 -27 -2 -17 -5z"/>
<path d="M3338 2233 c23 -2 61 -2 85 0 23 2 4 4 -43 4 -47 0 -66 -2 -42 -4z"/>
<path d="M3708 2233 c6 -2 18 -2 25 0 6 3 1 5 -13 5 -14 0 -19 -2 -12 -5z"/>
<path d="M3445 2220 l-70 -6 95 -2 c64 -1 90 1 80 8 -8 5 -19 9 -25 8 -5 -1
-41 -4 -80 -8z"/>
<path d="M3623 2223 c15 -2 37 -2 50 0 12 2 0 4 -28 4 -27 0 -38 -2 -22 -4z"/>
<path d="M3670 2210 c-34 -7 -34 -7 -5 -8 17 0 41 4 55 8 33 11 0 11 -50 0z"/>
<path d="M3237 2203 c18 -2 50 -2 70 0 21 2 7 4 -32 4 -38 0 -55 -2 -38 -4z"/>
<path d="M3017 2193 c18 -2 50 -2 70 0 21 2 7 4 -32 4 -38 0 -55 -2 -38 -4z"/>
<path d="M3457 2193 c18 -2 50 -2 70 0 21 2 7 4 -32 4 -38 0 -55 -2 -38 -4z"/>
<path d="M3238 2183 c17 -2 47 -2 65 0 17 2 3 4 -33 4 -36 0 -50 -2 -32 -4z"/>
<path d="M3423 2163 c9 -2 23 -2 30 0 6 3 -1 5 -18 5 -16 0 -22 -2 -12 -5z"/>
<path d="M3630 2160 c-8 -5 -10 -10 -5 -10 6 0 17 5 25 10 8 5 11 10 5 10 -5
0 -17 -5 -25 -10z"/>
<path d="M3208 2153 c18 -2 45 -2 60 0 15 2 0 4 -33 4 -33 0 -45 -2 -27 -4z"/>
<path d="M3438 2143 c6 -2 18 -2 25 0 6 3 1 5 -13 5 -14 0 -19 -2 -12 -5z"/>
<path d="M3280 2130 c-18 -6 -9 -8 35 -8 33 0 71 4 85 8 18 6 9 8 -35 8 -33 0
-71 -4 -85 -8z"/>
<path d="M3435 2120 c-16 -4 -52 -11 -78 -15 -27 -3 -47 -9 -44 -11 6 -7 137
15 156 26 19 11 7 11 -34 0z"/>
<path d="M3475 2103 c-33 -7 -48 -13 -44 -18 3 -2 27 2 54 10 46 12 37 19 -10
8z"/>
<path d="M2661 2456 c4 -4 87 -66 119 -90 8 -6 6 0 -5 13 -24 29 -94 81 -108
81 -6 0 -8 -2 -6 -4z"/>
<path d="M2675 2418 c22 -18 62 -53 91 -78 50 -44 50 -44 -6 10 -31 31 -72 66
-91 79 -30 20 -30 19 6 -11z"/>
<path d="M2470 2365 c0 -2 10 -10 23 -16 20 -11 21 -11 8 4 -13 16 -31 23 -31
12z"/>
<path d="M2440 2357 c0 -2 21 -18 48 -36 l47 -33 -40 36 c-35 31 -55 43 -55
33z"/>
<path d="M2272 2264 c10 -10 20 -16 22 -13 3 3 -5 11 -17 18 -21 13 -21 12 -5
-5z"/>
<path d="M2590 2236 c0 -2 8 -10 18 -17 15 -13 16 -12 3 4 -13 16 -21 21 -21
13z"/>
<path d="M2859 2173 c35 -40 66 -73 69 -73 3 0 -4 10 -16 23 -23 24 -30 43
-12 32 19 -12 9 10 -20 45 -17 19 -30 29 -30 24 0 -6 9 -19 20 -29 11 -10 20
-23 20 -29 0 -5 -21 10 -47 34 -39 38 -37 33 16 -27z"/>
<path d="M2714 2209 c15 -24 73 -75 106 -94 18 -9 16 -8 -64 66 -34 31 -52 43
-42 28z"/>
<path d="M2800 2197 c0 -1 35 -36 77 -77 l76 -75 -68 78 c-57 64 -85 89 -85
74z"/>
<path d="M2154 2085 c65 -60 187 -128 213 -118 10 4 14 2 10 -4 -8 -13 17 -25
36 -17 8 3 26 0 42 -6 15 -6 30 -9 32 -7 2 3 -24 15 -58 27 -33 13 -99 47
-146 77 -124 77 -121 60 3 -25 11 -7 6 -6 -11 2 -17 8 -64 40 -105 71 l-75 56
59 -56z"/>
<path d="M2764 2122 c11 -12 50 -43 87 -69 38 -25 67 -48 64 -51 -4 -4 -67 29
-117 62 -16 10 -28 16 -28 13 0 -3 27 -22 60 -43 66 -41 73 -53 17 -29 -56 23
-58 16 -2 -11 57 -27 49 -32 -15 -9 -24 8 -45 13 -47 11 -4 -3 53 -24 117 -43
13 -4 13 -4 0 6 -13 9 -13 11 0 11 13 0 13 1 0 11 -12 9 -11 10 8 6 12 -3 20
-1 17 3 -3 5 0 10 6 12 6 2 -6 15 -27 30 -22 14 -66 45 -99 69 -33 23 -51 33
-41 21z"/>
<path d="M2220 2097 c0 -7 72 -48 76 -44 2 2 -14 14 -36 26 -22 12 -40 20 -40
18z"/>
<path d="M2745 2070 c10 -11 20 -20 23 -20 3 0 -3 9 -13 20 -10 11 -20 20 -23
20 -3 0 3 -9 13 -20z"/>
<path d="M2621 2036 c2 -2 15 -9 29 -15 24 -11 24 -11 6 3 -16 13 -49 24 -35
12z"/>
<path d="M2730 1986 c0 -7 122 -46 139 -45 9 0 -18 11 -59 25 -84 26 -80 25
-80 20z"/>
<path d="M2590 1949 c12 -8 9 -9 -15 -5 l-30 5 30 -13 c17 -8 46 -16 65 -20
26 -4 30 -3 15 3 l-20 10 20 1 20 1 -20 8 c-11 4 -33 11 -50 15 -23 5 -27 4
-15 -5z m47 -15 c-3 -3 -12 -4 -19 -1 -8 3 -5 6 6 6 11 1 17 -2 13 -5z"/>
<path d="M2848 1913 c6 -2 18 -2 25 0 6 3 1 5 -13 5 -14 0 -19 -2 -12 -5z"/>
<path d="M2611 1901 c18 -11 189 -35 197 -26 3 3 -6 5 -20 5 -13 0 -27 3 -30
6 -3 3 -32 7 -64 9 -33 2 -68 6 -79 10 -16 5 -17 5 -4 -4z"/>
<path d="M2768 1903 c7 -3 16 -2 19 1 4 3 -2 6 -13 5 -11 0 -14 -3 -6 -6z"/>
<path d="M2898 1903 c6 -2 18 -2 25 0 6 3 1 5 -13 5 -14 0 -19 -2 -12 -5z"/>
<path d="M2818 1893 c6 -2 18 -2 25 0 6 3 1 5 -13 5 -14 0 -19 -2 -12 -5z"/>
<path d="M2140 1670 c0 -82 3 -100 15 -100 12 0 15 14 15 65 0 36 3 65 8 65 4
0 27 -29 52 -65 26 -36 53 -64 63 -65 15 0 17 11 17 100 0 81 -3 100 -15 100
-11 0 -15 -17 -17 -70 l-3 -71 -53 71 c-73 98 -82 94 -82 -30z"/>
<path d="M2360 1695 c0 -67 3 -79 25 -100 30 -31 83 -33 116 -6 22 17 24 27
24 97 0 53 -4 79 -12 81 -10 4 -13 -12 -13 -59 0 -77 -18 -108 -60 -108 -39 0
-50 23 -50 104 0 52 -3 66 -15 66 -12 0 -15 -15 -15 -75z"/>
<path d="M2557 1763 c-15 -14 -6 -23 23 -23 l30 0 0 -85 c0 -78 2 -85 20 -85
18 0 20 7 20 85 l0 85 30 0 c20 0 30 5 30 15 0 12 -15 15 -73 15 -41 0 -77 -3
-80 -7z"/>
<path d="M2752 1755 c-38 -27 -26 -65 28 -93 54 -27 62 -58 15 -55 -16 0 -39
3 -49 5 -29 5 -30 -17 -1 -30 61 -28 129 -2 123 46 -2 21 -14 32 -50 51 -48
23 -61 47 -32 58 8 3 27 0 41 -6 21 -10 28 -9 34 1 12 18 -3 29 -47 34 -27 4
-46 0 -62 -11z"/>
<path d="M1850 1650 c0 -6 38 -10 95 -10 57 0 95 4 95 10 0 6 -38 10 -95 10
-57 0 -95 -4 -95 -10z"/>
<path d="M2955 1650 c3 -6 48 -10 101 -10 56 0 94 4 94 10 0 6 -40 10 -101 10
-64 0 -98 -4 -94 -10z"/>
<path d="M1471 1464 c-20 -15 -21 -23 -21 -215 0 -119 4 -208 10 -220 10 -17
22 -19 138 -19 132 0 152 6 152 42 0 28 -33 38 -124 38 l-86 0 0 171 c0 94 -4
178 -10 188 -14 27 -35 32 -59 15z"/>
<path d="M1949 1347 c-93 -62 -104 -213 -21 -300 48 -50 155 -57 192 -12 11
14 14 13 27 -5 18 -25 49 -26 63 -1 15 28 13 314 -2 329 -17 17 -55 15 -66 -4
-8 -15 -12 -15 -40 0 -45 23 -112 21 -153 -7z m142 -57 c55 -30 65 -144 14
-187 -17 -15 -39 -23 -65 -23 -55 0 -90 43 -90 112 0 41 5 54 29 79 31 31 75
38 112 19z"/>
<path d="M2424 1360 c-33 -13 -64 -59 -64 -94 0 -56 24 -76 145 -118 35 -12
40 -18 40 -43 0 -28 -3 -30 -43 -33 -34 -3 -51 2 -77 22 -40 31 -61 33 -74 8
-29 -54 93 -115 182 -91 59 16 87 49 87 103 0 37 -5 48 -29 69 -16 13 -51 30
-77 36 -27 7 -54 17 -61 23 -20 17 -16 56 7 63 27 9 76 -3 91 -21 15 -19 55
-18 63 2 21 55 -110 107 -190 74z"/>
<path d="M2832 1353 c-99 -48 -120 -217 -38 -299 55 -55 158 -65 196 -19 11
14 15 13 27 -5 16 -22 43 -26 61 -8 17 17 17 319 0 336 -16 16 -38 15 -58 -3
-15 -14 -20 -14 -46 0 -38 19 -100 19 -142 -2z m149 -82 c24 -25 29 -38 29
-79 0 -70 -35 -112 -92 -112 -81 0 -125 90 -83 170 30 59 98 68 146 21z"/>
<path d="M3257 1352 c-14 -16 -17 -43 -17 -161 0 -146 7 -181 38 -181 35 0 42
21 42 122 0 134 18 168 89 168 51 0 61 -24 61 -144 0 -59 5 -116 10 -127 12
-21 40 -25 58 -7 16 16 16 243 1 287 -22 62 -116 81 -183 36 -26 -18 -36 -21
-36 -10 0 8 -9 19 -19 25 -25 13 -25 13 -44 -8z"/>
</g>
</svg>
