<svg xmlns="http://www.w3.org/2000/svg" xmlns:xlink="http://www.w3.org/1999/xlink" width="640" zoomAndPan="magnify" viewBox="0 0 480 479.999983" height="640" preserveAspectRatio="xMidYMid meet" version="1.0"><path fill="#ffffff" d="M 240.191406 165.878906 C 199.265625 165.75 166.007812 198.878906 165.878906 239.804688 C 165.75 280.734375 198.878906 313.992188 239.804688 314.121094 C 280.734375 314.25 313.992188 281.121094 314.121094 240.191406 C 314.25 199.265625 281.121094 166.007812 240.191406 165.878906 Z M 239.804688 191.917969 C 266.359375 191.789062 287.953125 213.25 288.082031 239.804688 C 288.210938 266.359375 266.746094 287.953125 240.191406 288.082031 C 213.640625 288.210938 192.046875 266.746094 191.917969 240.191406 C 191.789062 213.636719 213.25 192.046875 239.804688 191.917969 Z M 300.003906 162.847656 C 300.003906 153.308594 307.738281 145.574219 317.277344 145.574219 C 326.816406 145.574219 334.550781 153.308594 334.550781 162.847656 C 334.550781 172.386719 326.816406 180.121094 317.277344 180.121094 C 307.738281 180.121094 300.003906 172.386719 300.003906 162.847656 Z M 383.601562 180.378906 C 382.503906 157.242188 377.21875 136.746094 360.269531 119.859375 C 343.382812 102.972656 322.886719 97.6875 299.746094 96.527344 C 275.898438 95.171875 204.421875 95.171875 180.574219 96.527344 C 157.5 97.621094 137.003906 102.90625 120.050781 119.792969 C 103.101562 136.679688 97.882812 157.175781 96.71875 180.316406 C 95.367188 204.164062 95.367188 275.640625 96.71875 299.488281 C 97.816406 322.628906 103.101562 343.125 120.050781 360.011719 C 137.003906 376.898438 157.433594 382.183594 180.574219 383.34375 C 204.421875 384.695312 275.898438 384.695312 299.746094 383.34375 C 322.886719 382.246094 343.382812 376.960938 360.269531 360.011719 C 377.15625 343.125 382.441406 322.628906 383.601562 299.488281 C 384.953125 275.640625 384.953125 204.226562 383.601562 180.378906 Z M 352.792969 325.078125 C 347.765625 337.710938 338.03125 347.441406 325.335938 352.535156 C 306.320312 360.074219 261.203125 358.335938 240.191406 358.335938 C 219.179688 358.335938 174 360.011719 155.050781 352.535156 C 142.417969 347.507812 132.683594 337.773438 127.59375 325.078125 C 120.050781 306.0625 121.792969 260.945312 121.792969 239.933594 C 121.792969 218.921875 120.117188 173.742188 127.59375 154.792969 C 132.621094 142.160156 142.351562 132.425781 155.050781 127.335938 C 174.0625 119.792969 219.179688 121.535156 240.191406 121.535156 C 261.203125 121.535156 306.386719 119.859375 325.335938 127.335938 C 337.96875 132.363281 347.699219 142.09375 352.792969 154.792969 C 360.332031 173.804688 358.59375 218.921875 358.59375 239.933594 C 358.59375 260.945312 360.332031 306.128906 352.792969 325.078125 Z M 352.792969 325.078125 " fill-opacity="1" fill-rule="nonzero"/></svg>