<svg xmlns="http://www.w3.org/2000/svg" xmlns:xlink="http://www.w3.org/1999/xlink" width="640" zoomAndPan="magnify" viewBox="0 0 480 479.999983" height="640" preserveAspectRatio="xMidYMid meet" version="1.0"><path fill="#ffffff" d="M 160.269531 363.75 L 100.394531 363.75 L 100.394531 170.96875 L 160.269531 170.96875 Z M 130.300781 144.671875 C 111.15625 144.671875 95.625 128.816406 95.625 109.675781 C 95.625 100.457031 99.296875 91.691406 105.808594 85.183594 C 112.320312 78.671875 121.148438 75 130.300781 75 C 139.453125 75 148.28125 78.671875 154.792969 85.183594 C 161.300781 91.691406 164.976562 100.523438 164.976562 109.675781 C 164.976562 128.816406 149.441406 144.671875 130.300781 144.671875 Z M 384.308594 363.75 L 324.5625 363.75 L 324.5625 269.90625 C 324.5625 247.539062 324.109375 218.859375 293.429688 218.859375 C 262.300781 218.859375 257.53125 243.15625 257.53125 268.292969 L 257.53125 363.75 L 197.71875 363.75 L 197.71875 170.96875 L 255.144531 170.96875 L 255.144531 197.265625 L 255.984375 197.265625 C 263.976562 182.121094 283.503906 166.136719 312.636719 166.136719 C 373.222656 166.136719 384.375 206.03125 384.375 257.851562 L 384.375 363.75 Z M 384.308594 363.75 " fill-opacity="1" fill-rule="nonzero"/></svg>