<svg xmlns="http://www.w3.org/2000/svg" xmlns:xlink="http://www.w3.org/1999/xlink" width="640" zoomAndPan="magnify" viewBox="0 0 480 479.999983" height="640" preserveAspectRatio="xMidYMid meet" version="1.0"><path fill="#fea31b" d="M 256.125 33.824219 C 253.050781 27.824219 246.824219 24 240.074219 24 C 233.324219 24 227.101562 27.824219 224.023438 33.824219 L 168.824219 141.976562 L 48.898438 161.023438 C 42.226562 162.074219 36.675781 166.800781 34.574219 173.25 C 32.476562 179.699219 34.199219 186.75 38.925781 191.550781 L 124.726562 277.425781 L 105.824219 397.351562 C 104.773438 404.023438 107.550781 410.773438 113.023438 414.75 C 118.5 418.726562 125.699219 419.324219 131.773438 416.25 L 240.074219 361.199219 L 348.300781 416.25 C 354.300781 419.324219 361.574219 418.726562 367.050781 414.75 C 372.523438 410.773438 375.300781 404.101562 374.25 397.351562 L 355.273438 277.425781 L 441.074219 191.550781 C 445.875 186.75 447.523438 179.699219 445.425781 173.25 C 443.324219 166.800781 437.851562 162.074219 431.101562 161.023438 L 311.25 141.976562 Z M 256.125 33.824219 " fill-opacity="1" fill-rule="nonzero"/></svg>