<svg xmlns="http://www.w3.org/2000/svg" xmlns:xlink="http://www.w3.org/1999/xlink" width="640" zoomAndPan="magnify" viewBox="0 0 480 479.999983" height="640" preserveAspectRatio="xMidYMid meet" version="1.0"><path fill="#ffffff" d="M 371.097656 172.773438 C 371.289062 175.675781 371.289062 178.640625 371.289062 181.539062 C 371.289062 270.9375 303.226562 373.996094 178.835938 373.996094 C 140.484375 373.996094 104.90625 362.910156 75 343.640625 C 80.414062 344.285156 85.699219 344.476562 91.308594 344.476562 C 122.953125 344.476562 152.019531 333.777344 175.289062 315.601562 C 145.574219 314.957031 120.632812 295.492188 112.0625 268.679688 C 116.25 269.324219 120.441406 269.710938 124.824219 269.710938 C 130.878906 269.710938 136.941406 268.875 142.609375 267.390625 C 111.609375 261.140625 88.40625 233.875 88.40625 201.003906 L 88.40625 200.167969 C 97.429688 205.195312 107.871094 208.351562 118.957031 208.738281 C 100.71875 196.621094 88.792969 175.867188 88.792969 152.40625 C 88.792969 139.839844 92.144531 128.300781 98.007812 118.246094 C 131.332031 159.304688 181.347656 186.117188 237.484375 189.015625 C 236.453125 183.988281 235.808594 178.769531 235.808594 173.546875 C 235.808594 136.292969 265.972656 105.9375 303.421875 105.9375 C 322.886719 105.9375 340.480469 114.121094 352.855469 127.269531 C 368.132812 124.371094 382.828125 118.699219 395.78125 110.964844 C 390.753906 126.691406 380.054688 139.839844 366.070312 148.21875 C 379.667969 146.734375 392.882812 142.996094 405 137.777344 C 395.78125 151.183594 384.246094 163.105469 371.097656 172.773438 Z M 371.097656 172.773438 " fill-opacity="1" fill-rule="nonzero"/></svg>